<?xml version="1.0" encoding="UTF-8"?><svg xmlns="http://www.w3.org/2000/svg" xmlns:xlink="http://www.w3.org/1999/xlink" version="1.1" id="Layer_1" x="0px" y="0px" viewBox="0 0 24 24" xml:space="preserve"><path id="base_color" fill="#F47920" d="M11 12c3.309 0 6-2.691 6-6s-2.691-6-6-6-6 2.691-6 6 2.691 6 6 6zm7.5 1c-.996 0-1.928.269-2.734.732C14.32 13.302 12.7 13 11 13c-3.427 0-6.535 1.226-8.539 2.255A4.5 4.5 0 0 0 0 19.268V22h14.257a5.5 5.5 0 1 0 4.243-9z"/><g id="light_foil" fill="#FFF"><path opacity="0.2" d="M18.5 13a5.5 5.5 0 1 0 0 11 5.5 5.5 0 0 0 0-11zm2.5 6h-2v2h-1v-2h-2v-1h2v-2h1v2h2v1z"/><path opacity="0.8" d="M21 18h-2v-2h-1v2h-2v1h2v2h1v-2h2z"/></g><metadata><rdf:RDF xmlns:rdf="http://www.w3.org/1999/02/22-rdf-syntax-ns#" xmlns:rdfs="http://www.w3.org/2000/01/rdf-schema#" xmlns:dc="http://purl.org/dc/elements/1.1/"><rdf:Description about="https://iconscout.com/legal#licenses" dc:title="action,people,user,add" dc:description="action,people,user,add" dc:publisher="Iconscout" dc:date="2017-10-13" dc:format="image/svg+xml" dc:language="en"><dc:creator><rdf:Bag><rdf:li>Those Icons</rdf:li></rdf:Bag></dc:creator></rdf:Description></rdf:RDF></metadata></svg>