<svg xmlns="http://www.w3.org/2000/svg" xmlns:xlink="http://www.w3.org/1999/xlink" width="42" height="42" viewBox="0 0 42 42"><defs><linearGradient id="b" x1="992.183" x2="1019.298" y1="516.081" y2="545.959" gradientTransform="translate(-1332.367 316.47) scale(1.34562)" gradientUnits="userSpaceOnUse" xlink:href="#a"/><linearGradient id="a"><stop offset="0" stop-color="#ff1679"/><stop offset="1" stop-color="#ff770b"/></linearGradient></defs><g transform="translate(0 -1010.362)"><rect width="42" height="42" y="1010.362" fill="url(#b)" rx="8.876" ry="8.876"/><path fill="#fff" fill-rule="evenodd" style="line-height:normal;text-indent:0;text-align:start;text-decoration-line:none;text-decoration-style:solid;text-decoration-color:#000;text-transform:none;block-progression:tb;isolation:auto;mix-blend-mode:normal" d="m 7.4973966,1017.3522 a 0.50005,0.50005 0 0 0 -0.4921875,0.5058 l 0,18.9786 a 0.50022217,0.50022217 0 0 0 0,0.049 l 0,7.8418 a 0.50004997,0.50004997 0 0 0 0.1425781,0.498 0.50005,0.50005 0 0 0 0.4882813,0.1348 l 26.8691395,0 a 0.50004997,0.50004997 0 1 0 0,-1 l -3.5,0 0,-13.5 a 0.50004994,0.50004994 0 0 0 -0.5,-0.5 l -3,0 a 0.50004994,0.50004994 0 0 0 -0.5,0.5 l 0,13.5 -2,0 0,-9.5 a 0.50004997,0.50004997 0 0 0 -0.5,-0.5 l -3,0 a 0.50004997,0.50004997 0 0 0 -0.5,0.5 l 0,9.5 -2,0 0,-11.5 a 0.50004997,0.50004997 0 0 0 -0.5,-0.5 l -2.999999,0 a 0.50004997,0.50004997 0 0 0 -0.5,0.5 l 0,11.5 -2,0 0,-6.5 a 0.50005,0.50005 0 0 0 -0.5,-0.5 l -3,0 a 0.50005,0.50005 0 0 0 -0.5,0.5 l 0,6.5 -1,0 0,-7.2754 9.167968,-8.0762 4.173828,3.4453 a 0.50004997,0.50004997 0 0 0 0.658203,-0.021 l 8,-7.4278 0,0.8555 a 0.50005,0.50005 0 1 0 1,0 l 0,-1.9375 a 0.50004997,0.50004997 0 0 0 -0.492187,-0.5684 l 0,0 a 0.50004997,0.50004997 0 0 0 -0.06641,0 l -1.941407,0 a 0.50005,0.50005 0 1 0 0,1 l 0.726563,0 -7.585938,7.0449 -4.164062,-3.4394 a 0.50004997,0.50004997 0 0 0 -0.648437,0.012 l -8.828125,7.7754 0,-17.8946 a 0.50005,0.50005 0 0 0 -0.5078084,-0.5058 z m 20.5078114,14.0078 2,0 0,13 -2,0 0,-13 z m -11.999999,2 1.999999,0 0,11 -1.999999,0 0,-11 z m 5.999999,2 2,0 0,9 -2,0 0,-9 z m -11.999999,3 2,0 0,6 -2,0 0,-6 z" color="#000" font-family="sans-serif" font-weight="400" overflow="visible" white-space="normal"/></g></svg>