<svg xmlns="http://www.w3.org/2000/svg" xmlns:xlink="http://www.w3.org/1999/xlink" width="25" height="25" viewBox="0 0 25 25"><defs><linearGradient id="a"><stop offset="0" stop-color="#16ff6a"/><stop offset="1" stop-color="#0090a5"/></linearGradient><linearGradient id="b" x1="1073.403" x2="1097.116" y1="516.451" y2="544.308" gradientTransform="matrix(.80097 0 0 .80097 -856.183 614.331)" gradientUnits="userSpaceOnUse" xlink:href="#a"/></defs><g transform="translate(0 -1027.362)"><rect width="25" height="25" y="1027.362" fill="url(#b)" rx="5.283" ry="5.283"/><path fill="#fff" style="text-indent:0;text-align:start;line-height:normal;text-transform:none;block-progression:tb" d="m 5,1034.3632 0,10.4824 c 0,0.8513 0.7083348,1.5156 1.5390625,1.5156 l 12.9609375,0 0.0039,0 c 0.786924,0 1.4961,-0.5825 1.4961,-1.373 l 0,-0.625 0,-5 -2,0 0,-5 -14,0 z m 1,0.998 12,0 0,1.998 -12,0 0,-1.998 z m 0,2.998 12,0 0,5.0137 0,1.6133 0,0.375 -11.4609375,0 C 6.2980056,1045.3612 6,1045.0775 6,1044.8456 l 0,-6.4864 z m 1,0.9942 0,0.5 0,4.5078 5,0 0,-5.0078 -5,0 z m 6,0.01 0,1 4,0 0,-1 -4,0 z m -5,0.9922 3,0 0,3.0078 -3,0 0,-3.0078 z m 11,0.01 1,0 0,4 0,0.625 c 0,0.1744 -0.184187,0.375 -0.5,0.375 -0.315813,0 -0.5,-0.2006 -0.5,-0.375 l 0,-1.6133 0,-3.0117 z m -6,1 0,1 4,0 0,-1 -4,0 z m 0,2 0,1 4,0 0,-1 -4,0 z" color="#000" font-family="sans-serif" font-weight="400" overflow="visible"/></g></svg>